<svg width="128" height="128" viewBox="0 0 128 128" fill="none" xmlns="http://www.w3.org/2000/svg">
<path d="M67 51C67 49.3431 65.6569 48 64 48C62.3431 48 61 49.3431 61 51L67 51ZM61.8787 96.1213C63.0503 97.2929 64.9497 97.2929 66.1213 96.1213L85.2132 77.0294C86.3848 75.8579 86.3848 73.9584 85.2132 72.7868C84.0416 71.6152 82.1421 71.6152 80.9706 72.7868L64 89.7574L47.0294 72.7868C45.8579 71.6152 43.9584 71.6152 42.7868 72.7868C41.6152 73.9584 41.6152 75.8579 42.7868 77.0294L61.8787 96.1213ZM61 51L61 94L67 94L67 51L61 51Z" fill="var(--color)"/>
<rect x="16" y="35" width="96" height="76" rx="11" stroke="var(--color)" stroke-width="8"/>
<path d="M110.5 40.5L95.4021 21.0885C93.8865 19.1398 91.5561 18 89.0873 18H38.9127C36.4439 18 34.1135 19.1398 32.5979 21.0885L17.5 40.5" stroke="var(--color)" stroke-width="8"/>
</svg>
