<svg width="128" height="128" viewBox="0 0 128 128" fill="none" xmlns="http://www.w3.org/2000/svg">
<path fill-rule="evenodd" clip-rule="evenodd" d="M29 48.3062C24.0294 48.3062 20 52.3356 20 57.3062V113.617C20 118.588 24.0294 122.617 29 122.617H99C103.971 122.617 108 118.588 108 113.617V57.3062C108 52.3356 103.971 48.3062 99 48.3062H29ZM52 71C47.5817 71 44 74.5817 44 79C44 83.4183 47.5817 87 52 87H76C80.4183 87 84 83.4183 84 79C84 74.5817 80.4183 71 76 71H52Z" fill="var(--color, white)"/>
<path d="M24 57.3062C24 54.5448 26.2386 52.3062 29 52.3062V44.3062C21.8203 44.3062 16 50.1265 16 57.3062H24ZM24 113.617V57.3062H16V113.617H24ZM29 118.617C26.2386 118.617 24 116.379 24 113.617H16C16 120.797 21.8203 126.617 29 126.617V118.617ZM99 118.617H29V126.617H99V118.617ZM104 113.617C104 116.379 101.761 118.617 99 118.617V126.617C106.18 126.617 112 120.797 112 113.617H104ZM104 57.3062V113.617H112V57.3062H104ZM99 52.3062C101.761 52.3062 104 54.5448 104 57.3062H112C112 50.1265 106.18 44.3062 99 44.3062V52.3062ZM29 52.3062H99V44.3062H29V52.3062ZM48 79C48 76.7909 49.7909 75 52 75V67C45.3726 67 40 72.3726 40 79H48ZM52 83C49.7909 83 48 81.2091 48 79H40C40 85.6274 45.3726 91 52 91V83ZM76 83H52V91H76V83ZM80 79C80 81.2091 78.2091 83 76 83V91C82.6274 91 88 85.6274 88 79H80ZM76 75C78.2091 75 80 76.7909 80 79H88C88 72.3726 82.6274 67 76 67V75ZM52 75H76V67H52V75Z" fill="var(--color, white)"/>
<path fill-rule="evenodd" clip-rule="evenodd" d="M24 37.9857C24.8733 37.7032 25.805 37.5506 26.7724 37.5506H100.684C101.651 37.5506 102.582 37.7032 103.456 37.9856C99.6951 33.5043 94.0527 30.6553 87.7448 30.6553H39.7109C33.403 30.6553 27.7605 33.5043 24 37.9857Z" fill="var(--color, white)"/>
<path fill-rule="evenodd" clip-rule="evenodd" d="M35 24.3381C35.3526 24.2961 35.7115 24.2745 36.0754 24.2745H91.8468C92.1363 24.2745 92.4226 24.2882 92.7051 24.3149C89.0659 21.0124 84.2345 19 78.9331 19H48.7975C43.4837 19 38.6421 21.0218 35 24.3381Z" fill="var(--color, white)"/>
</svg>
