<svg width="128" height="128" viewBox="0 0 128 128" fill="none" xmlns="http://www.w3.org/2000/svg">
<path d="M30 52.5883L38.4869 109.763C39.069 113.685 42.4355 116.588 46.4002 116.588H81.5998C85.5645 116.588 88.931 113.685 89.5131 109.763L98 52.5883" stroke="var(--color)" stroke-width="11" stroke-linecap="round"/>
<path d="M21 33.0883H107" stroke="var(--color)" stroke-width="11" stroke-linecap="round"/>
<path d="M44.404 28.5883C45.1825 24.7745 47.0643 21.2397 49.8579 18.4462C51.2658 17.0382 52.9468 16.3969 55.2563 16.1409C56.9907 15.9486 58.6865 15.9894 60.7008 16.038C61.7064 16.0622 62.7913 16.0883 64 16.0883C65.2087 16.0883 66.2936 16.0622 67.2992 16.038C69.3135 15.9894 71.0093 15.9486 72.7437 16.1409C75.0532 16.3969 76.7342 17.0382 78.1421 18.4462C80.9357 21.2397 82.8175 24.7745 83.596 28.5883L64 28.5883L44.404 28.5883Z" stroke="var(--color)" stroke-width="8"/>
</svg>
