<svg width="128" height="128" viewBox="0 0 128 128" fill="none" xmlns="http://www.w3.org/2000/svg">
<path d="M73.8002 33.8659L94.0894 54.1051M39.8179 67.7643L87.5085 20.1917C93.1109 14.6028 102.195 14.6028 107.798 20.1917C113.401 25.7806 113.401 34.842 107.798 40.4309L58.574 89.5324C53.1108 94.9828 50.3792 97.7077 47.2674 99.8744C44.5056 101.799 41.5265 103.391 38.3925 104.622C34.8611 106.009 31.0741 106.771 23.5001 108.296L20 109L20.3404 106.623C21.5449 98.2129 22.1471 94.0075 23.517 90.0812C24.7326 86.5972 26.3933 83.2848 28.4578 80.2244C30.7845 76.7753 33.7957 73.7714 39.8179 67.7643Z" stroke="var(--color)" stroke-width="8" stroke-linecap="round" stroke-linejoin="round"/>
</svg>
