<svg width="128" height="128" viewBox="0 0 128 128" fill="none" xmlns="http://www.w3.org/2000/svg">
<path d="M53 55.5L59 78.5H94.5" stroke="var(--color)" stroke-width="8" stroke-linecap="round" stroke-linejoin="round"/>
<path d="M12.432 80.0027H12.144C11.1312 80.0053 10.1551 79.6237 9.41272 78.9348C8.67033 78.2459 8.21692 77.301 8.144 76.2909C8.056 74.875 8 73.443 8 72.0031C8 70.9423 8.42142 69.925 9.17157 69.1749C9.92172 68.4247 10.9391 68.0033 12 68.0033C13.0609 68.0033 14.0783 68.4247 14.8284 69.1749C15.5786 69.925 16 70.9423 16 72.0031C16 73.2511 16.056 74.491 16.144 75.7149C16.1832 76.2405 16.1182 76.7686 15.9526 77.2689C15.7871 77.7692 15.5243 78.2319 15.1793 78.6304C14.8344 79.0288 14.4141 79.3552 13.9426 79.5907C13.4711 79.8262 12.9578 79.9662 12.432 80.0027ZM20.384 92.074C19.9402 91.1111 19.1323 90.3638 18.1377 89.9963C17.1431 89.6287 16.0433 89.6711 15.08 90.1141C14.117 90.5579 13.3697 91.3658 13.0021 92.3603C12.6346 93.3548 12.677 94.4545 13.12 95.4178C14.504 98.4183 16.1504 101.291 18.04 104.001C18.4093 104.528 18.9004 104.958 19.4714 105.255C20.0424 105.551 20.6765 105.706 21.32 105.705C22.1388 105.708 22.9383 105.456 23.608 104.985C24.0431 104.685 24.4143 104.301 24.7 103.856C24.9857 103.411 25.1804 102.913 25.2726 102.392C25.3649 101.872 25.3529 101.338 25.2375 100.822C25.122 100.306 24.9054 99.8174 24.6 99.3856C22.9797 97.076 21.5688 94.6344 20.384 92.074ZM43.872 115.593C41.3034 114.409 38.8457 112.998 36.528 111.377C36.0966 111.071 35.6089 110.854 35.0931 110.738C34.5772 110.622 34.0435 110.609 33.5227 110.701C33.002 110.792 32.5045 110.986 32.0591 111.271C31.6138 111.556 31.2293 111.926 30.928 112.361C30.6219 112.792 30.4041 113.279 30.2875 113.795C30.1708 114.31 30.1574 114.844 30.2482 115.364C30.3389 115.885 30.532 116.382 30.8162 116.828C31.1004 117.274 31.4701 117.659 31.904 117.961C34.6138 119.858 37.4895 121.508 40.496 122.888C41.0192 123.133 41.5903 123.259 42.168 123.256C42.9326 123.256 43.681 123.036 44.3247 122.624C44.9684 122.211 45.4804 121.623 45.8 120.928C46.0266 120.451 46.1565 119.934 46.1822 119.407C46.2079 118.879 46.1288 118.352 45.9495 117.855C45.7703 117.358 45.4944 116.902 45.1378 116.512C44.7812 116.122 44.351 115.807 43.872 115.585V115.593ZM64 16.0063H61.656L70.832 6.83877C71.2045 6.46722 71.5001 6.02584 71.7017 5.53991C71.9034 5.05398 72.0072 4.53304 72.0072 4.00693C72.0072 3.48082 71.9034 2.95988 71.7017 2.47394C71.5001 1.98801 71.2045 1.54663 70.832 1.17508C70.4604 0.802599 70.019 0.507073 69.5331 0.305433C69.0471 0.103793 68.5261 0 68 0C67.4739 0 66.9529 0.103793 66.4669 0.305433C65.981 0.507073 65.5396 0.802599 65.168 1.17508L49.168 17.1742C48.797 17.5494 48.501 17.9919 48.296 18.4781C47.8959 19.4574 47.8959 20.5546 48.296 21.5339C48.501 22.0201 48.797 22.4627 49.168 22.8379L65.168 38.837C65.5402 39.2082 65.9818 39.5024 66.4678 39.7028C66.9537 39.9032 67.4744 40.0059 68 40.0049C68.5256 40.0059 69.0463 39.9032 69.5322 39.7028C70.0182 39.5024 70.4599 39.2082 70.832 38.837C71.2045 38.4654 71.5001 38.0241 71.7017 37.5381C71.9034 37.0522 72.0072 36.5312 72.0072 36.0051C72.0072 35.479 71.9034 34.9581 71.7017 34.4722C71.5001 33.9862 71.2045 33.5448 70.832 33.1733L61.656 24.0058H64C76.7265 24.0185 88.9281 29.0794 97.9271 38.0779C106.926 47.0764 111.987 59.2773 112 72.0031C111.987 84.7289 106.926 96.9298 97.9271 105.928C88.9281 114.927 76.7265 119.988 64 120C62.76 120 61.52 119.952 60.304 119.856C59.2553 119.81 58.2282 120.164 57.4317 120.848C56.6351 121.531 56.1289 122.493 56.016 123.536C55.9343 124.594 56.2762 125.641 56.9663 126.446C57.6564 127.252 58.6383 127.75 59.696 127.832C61.12 127.944 62.552 128 64 128C78.8469 127.983 93.0809 122.078 103.579 111.58C114.078 101.082 119.983 86.8492 120 72.0031C119.983 57.157 114.078 42.9238 103.579 32.4261C93.0809 21.9283 78.8469 16.0232 64 16.0063Z" fill="var(--color)"/>
</svg>
