<svg width="128" height="128" viewBox="0 0 128 128" fill="none" xmlns="http://www.w3.org/2000/svg">
<path d="M50.3562 77.2727L69.7547 96.6712C72.9974 99.9139 78.1599 100.2 81.7409 97.335L82.9836 96.3409C85.1185 94.6329 86.3613 92.0471 86.3613 89.313V74.0905C86.3613 71.7036 87.3095 69.4144 88.9974 67.7266L108.001 48.7226C111.516 45.2079 111.516 39.5094 108.001 35.9947L91.2705 19.2639C87.7558 15.7492 82.0573 15.7492 78.5426 19.2639L59.5386 38.2679C57.8508 39.9557 55.5616 40.9039 53.1747 40.9039H38.1557C35.3065 40.9039 32.6256 42.2531 30.9279 44.5413L29.8884 45.9423C27.2303 49.525 27.5978 54.5143 30.7524 57.6688L50.3562 77.2727ZM50.3562 77.2727L27.8076 99.8214" stroke="var(--color)" stroke-width="8" stroke-linecap="round"/>
</svg>
