<svg width="128" height="128" viewBox="0 0 128 128" fill="none" xmlns="http://www.w3.org/2000/svg">
<path d="M50.25 119.031H13.5833C12.3678 119.031 11.202 118.548 10.3424 117.688C9.48289 116.829 9 115.663 9 114.447C9 113.232 9.48289 112.066 10.3424 111.206C11.202 110.347 12.3678 109.864 13.5833 109.864H50.25C51.4656 109.864 52.6314 110.347 53.4909 111.206C54.3504 112.066 54.8333 113.232 54.8333 114.447C54.8333 115.663 54.3504 116.829 53.4909 117.688C52.6314 118.548 51.4656 119.031 50.25 119.031ZM41.0833 100.697H13.5833C12.3678 100.697 11.202 100.215 10.3424 99.355C9.48289 98.4954 9 97.3296 9 96.1141C9 94.8985 9.48289 93.7327 10.3424 92.8732C11.202 92.0136 12.3678 91.5307 13.5833 91.5307H41.0833C42.2989 91.5307 43.4647 92.0136 44.3242 92.8732C45.1838 93.7327 45.6667 94.8985 45.6667 96.1141C45.6667 97.3296 45.1838 98.4954 44.3242 99.355C43.4647 100.215 42.2989 100.697 41.0833 100.697ZM31.9167 82.3641H13.5833C12.3678 82.3641 11.202 81.8812 10.3424 81.0216C9.48289 80.1621 9 78.9963 9 77.7807C9 76.5652 9.48289 75.3994 10.3424 74.5398C11.202 73.6803 12.3678 73.1974 13.5833 73.1974H31.9167C33.1322 73.1974 34.298 73.6803 35.1576 74.5398C36.0171 75.3994 36.5 76.5652 36.5 77.7807C36.5 78.9963 36.0171 80.1621 35.1576 81.0216C34.298 81.8812 33.1322 82.3641 31.9167 82.3641ZM68.5833 118.824C67.3678 118.879 66.1805 118.448 65.2827 117.626C64.3849 116.805 63.8501 115.661 63.796 114.445C63.7419 113.23 64.173 112.042 64.9942 111.144C65.8155 110.247 66.9598 109.712 68.1754 109.658C76.8492 108.864 85.1172 105.615 92.0112 100.292C98.9051 94.9689 104.14 87.7914 107.101 79.6004C110.063 71.4094 110.63 62.5441 108.734 54.0428C106.839 45.5414 102.561 37.7561 96.4008 31.5986C90.2405 25.4411 82.4531 21.1665 73.9509 19.2753C65.4487 17.3841 56.5837 17.9546 48.3941 20.9202C40.2045 23.8857 33.0294 29.1234 27.7093 36.0198C22.3891 42.9162 19.1442 51.1858 18.3546 59.8599C18.3004 60.4594 18.1287 61.0423 17.8492 61.5754C17.5698 62.1086 17.188 62.5814 16.7258 62.967C16.2636 63.3526 15.73 63.6434 15.1554 63.8228C14.5809 64.0021 13.9766 64.0666 13.3771 64.0124C12.7776 63.9582 12.1947 63.7865 11.6615 63.507C11.1284 63.2276 10.6556 62.8459 10.27 62.3837C9.88436 61.9215 9.59358 61.3878 9.41422 60.8132C9.23485 60.2387 9.17041 59.6344 9.22458 59.0349C10.5028 44.9334 17.1703 31.8681 27.839 22.5587C38.5077 13.2494 52.3558 8.4132 66.5004 9.05692C80.6451 9.70064 93.9966 15.7747 103.776 26.0146C113.555 36.2545 119.008 49.8714 119 64.0307C119.07 77.7731 113.965 91.0384 104.7 101.188C95.4341 111.337 82.6877 117.627 68.9958 118.806C68.8583 118.82 68.7162 118.824 68.5833 118.824ZM64 36.5307C62.7844 36.5307 61.6186 37.0136 60.7591 37.8732C59.8995 38.7327 59.4167 39.8985 59.4167 41.1141V64.0307C59.4169 65.2462 59.9 66.4118 60.7596 67.2711L74.5096 81.0211C75.374 81.856 76.5318 82.318 77.7335 82.3076C78.9352 82.2971 80.0848 81.8151 80.9346 80.9653C81.7844 80.1155 82.2664 78.966 82.2768 77.7642C82.2873 76.5625 81.8253 75.4047 80.9904 74.5403L68.5833 62.1332V41.1141C68.5833 39.8985 68.1004 38.7327 67.2409 37.8732C66.3814 37.0136 65.2156 36.5307 64 36.5307Z" fill="var(--color)"/>
</svg>
