<svg width="128" height="128" viewBox="0 0 128 128" fill="none" xmlns="http://www.w3.org/2000/svg">
<path fill-rule="evenodd" clip-rule="evenodd" d="M84.4705 39.8519C79.1546 38.4275 73.5174 38.797 68.4329 40.903C63.3485 43.0091 59.101 46.734 56.3494 51.5C55.2448 53.4132 52.7984 54.0687 50.8853 52.9641C48.9721 51.8595 48.3166 49.4132 49.4212 47.5C53.0534 41.2088 58.66 36.292 65.3714 33.512C72.0829 30.732 79.5241 30.2443 86.541 32.1245C93.5579 34.0046 99.7584 38.1476 104.181 43.9109C108.603 49.6741 111 56.7356 111 64C111 71.2644 108.603 78.3259 104.181 84.0891C99.7584 89.8524 93.5579 93.9954 86.541 95.8756C79.5241 97.7557 72.0829 97.268 65.3714 94.488C58.66 91.7081 53.0534 86.7912 49.4212 80.5C48.3166 78.5868 48.9721 76.1405 50.8853 75.0359C52.7984 73.9313 55.2448 74.5868 56.3494 76.5C59.101 81.2661 63.3485 84.991 68.4329 87.097C73.5174 89.203 79.1546 89.5725 84.4705 88.1482C89.7863 86.7238 94.4836 83.5852 97.8338 79.219C101.184 74.8529 103 69.5034 103 64C103 58.4967 101.184 53.1471 97.8338 48.781C94.4836 44.4149 89.7863 41.2762 84.4705 39.8519ZM16 64C16 61.7909 17.7909 60 20 60H63.5392C65.2897 53.6576 71.1009 49 78 49C86.2843 49 93 55.7157 93 64C93 72.2843 86.2843 79 78 79C71.1009 79 65.2897 74.3424 63.5392 68H20C17.7909 68 16 66.2092 16 64Z" fill="var(--color)"/>
</svg>
