<svg width="128" height="128" viewBox="0 0 128 128" fill="none" xmlns="http://www.w3.org/2000/svg">
<path d="M40.0009 31C28.4024 31 19 40.405 19 52.0076C19 63.6062 28.4024 73.0112 40.0009 73.0112C40.0009 73.0112 39.8993 80.8145 33.56 92.0455C32.8558 94.2958 34.111 96.6923 36.3628 97.3924C37.9605 97.895 39.6416 97.4065 40.7273 96.2693C55.3039 80.326 61.0098 61.5617 61.0098 52.0076C61.0098 40.405 51.6076 31 40.0009 31Z" fill="var(--color)"/>
<path d="M87.991 31C76.3924 31 66.9901 40.4052 66.9901 52.0076C66.9901 63.6062 76.3924 73.0112 87.991 73.0112C87.991 73.0112 87.8894 80.8145 81.55 92.0455C80.8458 94.2958 82.1013 96.6923 84.3528 97.3924C85.9505 97.895 87.6317 97.4065 88.7171 96.2693C103.294 80.326 109 61.5617 109 52.0076C109 40.405 99.5976 31 87.991 31Z" fill="var(--color)"/>
</svg>
