<svg width="128" height="128" viewBox="0 0 128 128" fill="none" xmlns="http://www.w3.org/2000/svg">
<path d="M55.2817 9C53.2454 9 51.4934 10.4398 51.0988 12.4375V12.4375L49.8428 18.5514C49.0178 22.5673 46.0975 25.7995 42.5543 27.862V27.862C39.0642 29.8937 34.9424 30.704 31.1132 29.4212L24.6173 27.2452L24.5793 27.2334C22.6154 26.6215 20.4895 27.4495 19.4568 29.2284V29.2284L10.7654 43.7716L10.7181 43.8532C9.72067 45.5712 10.0823 47.7553 11.5802 49.0601V49.0601L16.281 53.0645C19.4317 55.7485 20.5432 59.8611 20.5432 64V64V64C20.5432 68.1389 19.4317 72.2515 16.281 74.9355L11.5802 78.9399V78.9399C10.0823 80.2447 9.72067 82.4288 10.7181 84.1468L10.7654 84.2284L19.4568 98.7716V98.7716C20.4895 100.551 22.6154 101.378 24.5793 100.767L24.6173 100.755L31.1132 98.5788C34.9424 97.296 39.0642 98.1063 42.5543 100.138V100.138C46.0975 102.201 49.0178 105.433 49.8428 109.449L51.0988 115.562V115.562C51.4934 117.56 53.2454 119 55.2817 119H72.7183C74.7546 119 76.5066 117.56 76.9012 115.562V115.562L78.1572 109.449C78.9822 105.433 81.9025 102.201 85.4457 100.138V100.138C88.9358 98.1063 93.0576 97.296 96.8868 98.5788L103.383 100.755L103.421 100.767C105.385 101.378 107.51 100.551 108.543 98.7716V98.7716L117.235 84.2284L117.282 84.1468C118.279 82.4288 117.918 80.2447 116.42 78.9399V78.9399L111.719 74.9355C108.568 72.2515 107.457 68.1389 107.457 64V64V64C107.457 59.8611 108.568 55.7485 111.719 53.0645L116.42 49.0601V49.0601C117.918 47.7553 118.279 45.5712 117.282 43.8532L117.235 43.7716L108.543 29.2284V29.2284C107.51 27.4495 105.385 26.6215 103.421 27.2334L103.383 27.2452L96.8868 29.4212C93.0576 30.704 88.9358 29.8937 85.4457 27.862V27.862C81.9025 25.7995 78.9822 22.5673 78.1572 18.5514L76.9012 12.4375V12.4375C76.5066 10.4398 74.7546 9 72.7183 9H55.2817ZM57.8372 22.5237C58.4197 19.5816 61.0007 17.4615 64 17.4615V17.4615C66.9993 17.4615 69.5803 19.5816 70.1628 22.5237L71.3333 28.4351V28.4351C71.6696 29.9902 72.8076 31.2493 74.321 31.7404V31.7404C79.2608 33.2443 83.7423 35.7894 87.4938 39.1442V39.1442C88.67 40.2075 90.3314 40.5591 91.8395 40.0697V40.0697L98.1924 37.9317C100.906 37.0185 103.89 38.1167 105.364 40.5714V40.5714C106.888 43.1098 106.368 46.3765 104.131 48.3163L99.3086 52.4976V52.4976C98.0745 53.4588 97.5424 55.086 97.9506 56.5962V56.5962C98.5108 59.009 98.7654 61.4715 98.7654 64C98.7654 66.5285 98.5108 68.991 97.9506 71.4038L97.9308 71.4956C97.609 72.9835 98.1398 74.527 99.3086 75.5024V75.5024L104.131 79.6837C106.368 81.6235 106.888 84.8902 105.364 87.4286V87.4286C103.89 89.8833 100.906 90.9815 98.1924 90.0683L91.8395 87.9303V87.9303C90.3314 87.4409 88.67 87.7925 87.4938 88.8558V88.8558C83.7423 92.2106 79.2608 94.7557 74.321 96.2596V96.2596C72.8076 96.7507 71.6696 98.0098 71.3333 99.5649V99.5649L70.1628 105.476C69.5803 108.418 66.9993 110.538 64 110.538V110.538C61.0007 110.538 58.4197 108.418 57.8372 105.476L56.6667 99.5649V99.5649C56.3304 98.0098 55.1924 96.7507 53.679 96.2596V96.2596C48.7392 94.7557 44.2577 92.2106 40.5062 88.8558V88.8558C39.33 87.7925 37.6686 87.4409 36.1605 87.9303V87.9303L29.8076 90.0683C27.0939 90.9815 24.1103 89.8833 22.6363 87.4286V87.4286C21.1119 84.8902 21.6319 81.6235 23.869 79.6837L28.6914 75.5024V75.5024C29.9255 74.5412 30.4576 72.914 30.0494 71.4038V71.4038C29.4892 68.991 29.2346 66.5285 29.2346 64C29.2346 61.4715 29.4892 59.009 30.0494 56.5962V56.5962C30.4576 55.086 29.9255 53.4588 28.6914 52.4976V52.4976L23.869 48.3163C21.6319 46.3765 21.1119 43.1098 22.6363 40.5714V40.5714C24.1103 38.1167 27.0939 37.0185 29.8076 37.9317L36.1605 40.0697V40.0697C37.6686 40.5591 39.33 40.2075 40.5062 39.1442V39.1442C44.2577 35.7894 48.7392 33.2443 53.679 31.7404V31.7404C55.1924 31.2493 56.3304 29.9902 56.6667 28.4351V28.4351L57.8372 22.5237ZM64 42.8462C52.0494 42.8462 42.2716 52.3654 42.2716 64C42.2716 75.6346 52.0494 85.1538 64 85.1538C75.9506 85.1538 85.7284 75.6346 85.7284 64C85.7284 52.3654 75.9506 42.8462 64 42.8462ZM64 51.3077C71.2485 51.3077 77.037 56.9432 77.037 64C77.037 71.0568 71.2485 76.6923 64 76.6923C56.7515 76.6923 50.963 71.0568 50.963 64C50.963 56.9432 56.7515 51.3077 64 51.3077Z" fill="var(--color, white)"/>
</svg>
