<svg width="128" height="128" viewBox="0 0 128 128" fill="none" xmlns="http://www.w3.org/2000/svg">
<path d="M29 63H36.5L40 54.5L49 73.5L61 38.5L73 92.5L85 51L91.5 63H99.5" stroke="var(--color)" stroke-width="6" stroke-linecap="round" stroke-linejoin="round"/>
<path fill-rule="evenodd" clip-rule="evenodd" d="M17.6103 33.7017C19.4147 34.5275 21.5384 33.9106 22.7477 32.3374C32.2539 19.9706 47.1961 12 64 12C80.7805 12 95.7046 19.9485 105.213 32.2858C106.417 33.8486 108.525 34.4662 110.324 33.6565V33.6565C112.575 32.6435 113.409 29.8605 111.922 27.8901C100.97 13.3793 83.5804 4 64 4C44.3927 4 26.9821 13.405 16.0334 27.9498C14.5565 29.9118 15.3773 32.6799 17.6103 33.7017V33.7017ZM13.1614 53.0198C13.5815 51.0655 12.6622 49.0331 10.8446 48.2013V48.2013C8.6257 47.1859 6.00904 48.3527 5.47178 50.7329C4.50846 55.0008 4 59.441 4 64C4 92.976 24.5401 117.155 51.8543 122.77C54.2637 123.265 56.4169 121.331 56.3779 118.872V118.872C56.3465 116.891 54.8786 115.241 52.9424 114.822C29.5355 109.753 12 88.9243 12 64C12 60.2329 12.4006 56.5594 13.1614 53.0198ZM75.7576 114.665C73.8015 115.117 72.3475 116.827 72.3793 118.834V118.834C72.4179 121.264 74.5833 123.12 76.9561 122.598C103.865 116.675 124 92.6887 124 64C124 59.4156 123.486 54.9514 122.512 50.6617C121.975 48.2944 119.378 47.1278 117.164 48.124V48.124C115.331 48.9488 114.4 50.993 114.825 52.9577C115.595 56.5165 116 60.2109 116 64C116 88.6752 98.8133 109.336 75.7576 114.665Z" fill="var(--color)"/>
</svg>
