<svg width="128" height="128" viewBox="0 0 128 128" fill="none" xmlns="http://www.w3.org/2000/svg">
<path d="M55.035 18.992L56.5073 18.4718L57.2378 17.0918C58.6546 14.4151 61.1764 13 64 13C66.8236 13 69.3454 14.4151 70.7622 17.0918L71.4927 18.4718L72.965 18.992C83.7169 22.7907 91.2475 33.6642 91.2475 45.5909C91.2475 58.0279 94.643 70.123 101.461 80.6723L105.289 86.7688C106.195 88.4494 106.16 89.8401 105.598 90.8534L105.489 91.0498L105.402 91.2572C105.117 91.9429 104.035 92.8182 102.349 92.8182H25.6508C24.2894 92.8182 23.1301 92.1658 22.4023 90.8534C21.8405 89.8401 21.8052 88.4494 22.7105 86.7689L26.5386 80.6724C33.357 70.1231 36.7525 58.028 36.7525 45.5909C36.7525 33.6642 44.2831 22.7907 55.035 18.992Z" fill="var(--color, white)" stroke="var(--color, white)" stroke-width="8"/>
<path d="M64 115.5C58.0079 115.5 52.5564 111.171 50.2425 104.5H77.7575C75.4436 111.171 69.9921 115.5 64 115.5Z" fill="var(--color, white)" stroke="var(--color, white)" stroke-width="5"/>
</svg>
