<svg width="128" height="128" viewBox="0 0 128 128" fill="none" xmlns="http://www.w3.org/2000/svg">
<g clip-path="url(#clip0_45_633)">
<path fill-rule="evenodd" clip-rule="evenodd" d="M65.0927 17.5H29C22.6487 17.5 17.5 22.6487 17.5 29V102C17.5 108.351 22.6487 113.5 29 113.5H72.4573C73.2741 113.5 74.0652 113.214 74.6935 112.692L110.236 83.1727C111.037 82.5077 111.5 81.5209 111.5 80.4802V60.0696C109.303 61.3194 106.923 62.0965 104.5 62.4085V76.9802H80.4573C74.106 76.9802 68.9573 82.1289 68.9573 88.4802V106.5H29C26.5147 106.5 24.5 104.485 24.5 102V29C24.5 26.5147 26.5147 24.5 29 24.5H63.8386C63.8179 22.1334 64.2328 19.7575 65.0927 17.5ZM64.0644 45H39C37.3431 45 36 46.3431 36 48C36 49.6569 37.3431 51 39 51H63.6147C63.3314 48.999 63.4813 46.9485 64.0644 45ZM98.3079 83.9802H80.4573C77.972 83.9802 75.9573 85.9949 75.9573 88.4802V102.543L98.3079 83.9802ZM39 63.5C37.3431 63.5 36 64.8431 36 66.5C36 68.1569 37.3431 69.5 39 69.5H91C92.6569 69.5 94 68.1569 94 66.5C94 64.8431 92.6569 63.5 91 63.5H39ZM36 85C36 83.3431 37.3431 82 39 82H60C61.6569 82 63 83.3431 63 85C63 86.6569 61.6569 88 60 88H39C37.3431 88 36 86.6569 36 85Z" fill="var(--color)"/>
<path d="M88.9209 37.5812L98.3954 47.0558C100.253 48.9133 103.21 49.077 105.261 47.436V47.436C106.484 46.4577 107.196 44.9765 107.196 43.4104L107.196 37.8017C107.196 35.4148 108.144 33.1256 109.832 31.4378L115.046 26.2237C118.561 22.7089 118.561 17.0104 115.046 13.4957L112.822 11.2711C109.307 7.75641 103.609 7.75641 100.094 11.2711L94.8797 16.4853C93.1919 18.1731 90.9027 19.1213 88.5157 19.1213L83.0544 19.1213C81.403 19.1213 79.8491 19.9033 78.8651 21.2295V21.2295C77.3245 23.3061 77.5375 26.1979 79.3659 28.0262L88.9209 37.5812ZM88.9209 37.5812L77.4757 49.0263" stroke="var(--color)" stroke-width="7" stroke-linecap="round"/>
</g>
<defs>
<clipPath id="clip0_45_633">
<rect width="128" height="128" fill="var(--color)"/>
</clipPath>
</defs>
</svg>
