<svg width="128" height="128" viewBox="0 0 128 128" fill="none" xmlns="http://www.w3.org/2000/svg">
<g clip-path="url(#clip0_45_656)">
<path fill-rule="evenodd" clip-rule="evenodd" d="M66.3786 17H25C20.5817 17 17 20.5817 17 25V106C17 110.418 20.5817 114 25 114H68.9132V85.5C68.9132 81.0817 72.4949 77.5 76.9132 77.5H112V58.5914C104.879 63.2716 95.3379 62.383 89.203 56.2481L88.9209 55.966L86.6681 58.2187C81.5913 63.2955 73.3602 63.2955 68.2833 58.2187C66.3772 56.3125 65.1867 53.9616 64.7119 51.5H39C37.067 51.5 35.5 49.933 35.5 48C35.5 46.067 37.067 44.5 39 44.5H65.2858C65.9166 42.798 66.9158 41.2015 68.2833 39.834L70.5361 37.5812L70.1735 37.2186C64.7686 31.8137 63.4059 23.7476 66.3786 17ZM88.9073 85H104L92.6956 95L88 99.1538L78 108V94.6488V90C78 87.2386 80.2386 85 83 85H88.9073ZM39 63C37.067 63 35.5 64.567 35.5 66.5C35.5 68.433 37.067 70 39 70H91C92.933 70 94.5 68.433 94.5 66.5C94.5 64.567 92.933 63 91 63H39ZM35.5 85C35.5 83.067 37.067 81.5 39 81.5H60C61.933 81.5 63.5 83.067 63.5 85C63.5 86.933 61.933 88.5 60 88.5H39C37.067 88.5 35.5 86.933 35.5 85Z" fill="var(--color)"/>
<path d="M100.094 11.2711C103.609 7.75641 109.307 7.75641 112.822 11.2711L115.046 13.4957C118.561 17.0104 118.561 22.7089 115.046 26.2237L109.832 31.4378C108.144 33.1256 107.196 35.4148 107.196 37.8017L107.196 43.4104C107.196 44.9765 106.484 46.4577 105.261 47.436V47.436C103.21 49.077 100.253 48.9133 98.3954 47.0558L88.9209 37.5812L79.3659 28.0262C77.5375 26.1979 77.3245 23.3061 78.8651 21.2295V21.2295C79.8491 19.9033 81.403 19.1213 83.0544 19.1213L88.5157 19.1213C90.9027 19.1213 93.1919 18.1731 94.8797 16.4853L100.094 11.2711Z" fill="var(--color)"/>
<path d="M88.9209 37.5812L98.3954 47.0558C100.253 48.9133 103.21 49.077 105.261 47.436V47.436C106.484 46.4577 107.196 44.9765 107.196 43.4104L107.196 37.8017C107.196 35.4148 108.144 33.1256 109.832 31.4378L115.046 26.2237C118.561 22.7089 118.561 17.0104 115.046 13.4957L112.822 11.2711C109.307 7.75641 103.609 7.75641 100.094 11.2711L94.8797 16.4853C93.1919 18.1731 90.9027 19.1213 88.5157 19.1213L83.0544 19.1213C81.403 19.1213 79.8491 19.9033 78.8651 21.2295V21.2295C77.3245 23.3061 77.5375 26.1979 79.3659 28.0262L88.9209 37.5812ZM88.9209 37.5812L77.4757 49.0263" stroke="var(--color)" stroke-width="7" stroke-linecap="round"/>
</g>
<defs>
<clipPath id="clip0_45_656">
<rect width="128" height="128" fill="var(--color)"/>
</clipPath>
</defs>
</svg>
