<svg width="128" height="128" viewBox="0 0 128 128" fill="none" xmlns="http://www.w3.org/2000/svg">
<path d="M55.94 21.6885H34.2583C27.8673 21.6885 24.6718 21.6885 22.2308 22.9326C20.0835 24.0269 18.3378 25.773 17.2438 27.9206C16 30.3623 16 33.5584 16 39.9508V94.7377C16 101.13 16 104.327 17.2438 106.768C18.3378 108.916 20.0835 110.662 22.2308 111.756C24.6718 113 27.8673 113 34.2583 113H89.0332C95.4242 113 98.62 113 101.061 111.756C103.208 110.662 104.954 108.916 106.048 106.768C107.291 104.327 107.291 101.13 107.291 94.7377V70.1977M81.6158 30.249L97.7538 46.3907M54.5861 57.2846L92.5194 19.3431C96.9756 14.8856 104.201 14.8856 108.657 19.3431C113.114 23.8005 113.114 31.0274 108.657 35.4848L69.5048 74.6458C65.1593 78.9928 62.9866 81.166 60.5115 82.894C58.3147 84.4286 55.9452 85.699 53.4523 86.6806C50.6434 87.7866 47.6313 88.3944 41.6069 89.6106L38.8229 90.1721L39.0936 88.2763C40.0517 81.5689 40.5307 78.2149 41.6203 75.0835C42.5872 72.3048 43.9081 69.663 45.5503 67.2221C47.4009 64.4714 49.7961 62.0756 54.5861 57.2846Z" stroke="var(--color)" stroke-width="8" stroke-linecap="round" stroke-linejoin="round"/>
</svg>
